<svg xmlns="http://www.w3.org/2000/svg" width="1200" height="620" viewBox="0 0 1200 620" role="img" aria-label="Run the company: cash over 24 weeks"><title>Run the company: cash over 24 weeks</title><rect x="0.5" y="0.5" width="1199" height="619" rx="16" fill="#0d1117" stroke="#30363d"/><rect x="28" y="26" width="40" height="40" rx="10" fill="#121d2f"/><g transform="translate(36.0,34.0) scale(1.0000)" fill="none" stroke="#58a6ff" stroke-width="2" stroke-linecap="round" stroke-linejoin="round"><path d="m2 7 4.41-4.41A2 2 0 0 1 7.83 2h8.34a2 2 0 0 1 1.42.59L22 7" /><path d="M4 12v8a2 2 0 0 0 2 2h12a2 2 0 0 0 2-2v-8" /><path d="M15 22v-4a2 2 0 0 0-2-2h-2a2 2 0 0 0-2 2v4" /><path d="M2 7h20" /><path d="M22 7v3a2 2 0 0 1-2 2a2.7 2.7 0 0 1-1.59-.63.7.7 0 0 0-.82 0A2.7 2.7 0 0 1 16 12a2.7 2.7 0 0 1-1.59-.63.7.7 0 0 0-.82 0A2.7 2.7 0 0 1 12 12a2.7 2.7 0 0 1-1.59-.63.7.7 0 0 0-.82 0A2.7 2.7 0 0 1 8 12a2.7 2.7 0 0 1-1.59-.63.7.7 0 0 0-.82 0A2.7 2.7 0 0 1 4 12a2 2 0 0 1-2-2V7" /></g><text x="82.0" y="45.0" font-family="-apple-system,BlinkMacSystemFont,'Segoe UI','Noto Sans',Helvetica,Arial,sans-serif" font-size="21" font-weight="700" fill="#f0f6fc" text-anchor="start" >Run the company: 24 weeks of Ember &amp; Oak</text><text x="82.0" y="66.0" font-family="-apple-system,BlinkMacSystemFont,'Segoe UI','Noto Sans',Helvetica,Arial,sans-serif" font-size="13.5" font-weight="400" fill="#9198a1" text-anchor="start" >Cash balance, mean of 3 seeded runs. Every model faces identical demand shocks; only decisions differ.</text><line x1="90" x2="960" y1="548.0" y2="548.0" stroke="#21262d"/><text x="80.0" y="552.0" font-family="-apple-system,BlinkMacSystemFont,'Segoe UI','Noto Sans',Helvetica,Arial,sans-serif" font-size="12" font-weight="400" fill="#6e7681" text-anchor="end" >$20k</text><line x1="90" x2="960" y1="484.7" y2="484.7" stroke="#21262d"/><text x="80.0" y="488.7" font-family="-apple-system,BlinkMacSystemFont,'Segoe UI','Noto Sans',Helvetica,Arial,sans-serif" font-size="12" font-weight="400" fill="#6e7681" text-anchor="end" >$30k</text><line x1="90" x2="960" y1="421.3" y2="421.3" stroke="#21262d"/><text x="80.0" y="425.3" font-family="-apple-system,BlinkMacSystemFont,'Segoe UI','Noto Sans',Helvetica,Arial,sans-serif" font-size="12" font-weight="400" fill="#6e7681" text-anchor="end" >$40k</text><line x1="90" x2="960" y1="358.0" y2="358.0" stroke="#21262d"/><text x="80.0" y="362.0" font-family="-apple-system,BlinkMacSystemFont,'Segoe UI','Noto Sans',Helvetica,Arial,sans-serif" font-size="12" font-weight="400" fill="#6e7681" text-anchor="end" >$50k</text><line x1="90" x2="960" y1="294.7" y2="294.7" stroke="#21262d"/><text x="80.0" y="298.7" font-family="-apple-system,BlinkMacSystemFont,'Segoe UI','Noto Sans',Helvetica,Arial,sans-serif" font-size="12" font-weight="400" fill="#6e7681" text-anchor="end" >$60k</text><line x1="90" x2="960" y1="231.3" y2="231.3" stroke="#21262d"/><text x="80.0" y="235.3" font-family="-apple-system,BlinkMacSystemFont,'Segoe UI','Noto Sans',Helvetica,Arial,sans-serif" font-size="12" font-weight="400" fill="#6e7681" text-anchor="end" >$70k</text><line x1="90" x2="960" y1="168.0" y2="168.0" stroke="#21262d"/><text x="80.0" y="172.0" font-family="-apple-system,BlinkMacSystemFont,'Segoe UI','Noto Sans',Helvetica,Arial,sans-serif" font-size="12" font-weight="400" fill="#6e7681" text-anchor="end" >$80k</text><text x="90.0" y="570.0" font-family="-apple-system,BlinkMacSystemFont,'Segoe UI','Noto Sans',Helvetica,Arial,sans-serif" font-size="12" font-weight="400" fill="#6e7681" text-anchor="middle" >wk 1</text><text x="203.5" y="570.0" font-family="-apple-system,BlinkMacSystemFont,'Segoe UI','Noto Sans',Helvetica,Arial,sans-serif" font-size="12" font-weight="400" fill="#6e7681" text-anchor="middle" >wk 4</text><text x="354.8" y="570.0" font-family="-apple-system,BlinkMacSystemFont,'Segoe UI','Noto Sans',Helvetica,Arial,sans-serif" font-size="12" font-weight="400" fill="#6e7681" text-anchor="middle" >wk 8</text><text x="506.1" y="570.0" font-family="-apple-system,BlinkMacSystemFont,'Segoe UI','Noto Sans',Helvetica,Arial,sans-serif" font-size="12" font-weight="400" fill="#6e7681" text-anchor="middle" >wk 12</text><text x="657.4" y="570.0" font-family="-apple-system,BlinkMacSystemFont,'Segoe UI','Noto Sans',Helvetica,Arial,sans-serif" font-size="12" font-weight="400" fill="#6e7681" text-anchor="middle" >wk 16</text><text x="808.7" y="570.0" font-family="-apple-system,BlinkMacSystemFont,'Segoe UI','Noto Sans',Helvetica,Arial,sans-serif" font-size="12" font-weight="400" fill="#6e7681" text-anchor="middle" >wk 20</text><text x="960.0" y="570.0" font-family="-apple-system,BlinkMacSystemFont,'Segoe UI','Noto Sans',Helvetica,Arial,sans-serif" font-size="12" font-weight="400" fill="#6e7681" text-anchor="middle" >wk 24</text><line x1="165.7" x2="165.7" y1="164" y2="548" stroke="#30363d" stroke-dasharray="2 4"/><circle cx="165.7" cy="146" r="15" fill="#161b22" stroke="#30363d"/><g transform="translate(156.7,137.0) scale(0.7500)" fill="none" stroke="#9198a1" stroke-width="2" stroke-linecap="round" stroke-linejoin="round"><path d="M14 18V6a2 2 0 0 0-2-2H4a2 2 0 0 0-2 2v11a1 1 0 0 0 1 1h2" /><path d="M15 18H9" /><path d="M19 18h2a1 1 0 0 0 1-1v-3.65a1 1 0 0 0-.22-.624l-3.48-4.35A1 1 0 0 0 17.52 8H14" /><circle cx="17" cy="18" r="2" /><circle cx="7" cy="18" r="2" /></g><line x1="241.3" x2="241.3" y1="164" y2="548" stroke="#30363d" stroke-dasharray="2 4"/><circle cx="241.3" cy="146" r="15" fill="#161b22" stroke="#30363d"/><g transform="translate(232.3,137.0) scale(0.7500)" fill="none" stroke="#9198a1" stroke-width="2" stroke-linecap="round" stroke-linejoin="round"><path d="M16 21v-2a4 4 0 0 0-4-4H6a4 4 0 0 0-4 4v2" /><circle cx="9" cy="7" r="4" /><path d="M22 21v-2a4 4 0 0 0-3-3.87" /><path d="M16 3.13a4 4 0 0 1 0 7.75" /></g><line x1="317.0" x2="317.0" y1="164" y2="548" stroke="#30363d" stroke-dasharray="2 4"/><circle cx="317.0" cy="146" r="15" fill="#161b22" stroke="#30363d"/><g transform="translate(308.0,137.0) scale(0.7500)" fill="none" stroke="#9198a1" stroke-width="2" stroke-linecap="round" stroke-linejoin="round"><path d="M11.525 2.295a.53.53 0 0 1 .95 0l2.31 4.679a2.123 2.123 0 0 0 1.595 1.16l5.166.756a.53.53 0 0 1 .294.904l-3.736 3.638a2.123 2.123 0 0 0-.611 1.878l.882 5.14a.53.53 0 0 1-.771.56l-4.618-2.428a2.122 2.122 0 0 0-1.973 0L6.396 21.01a.53.53 0 0 1-.77-.56l.881-5.139a2.122 2.122 0 0 0-.611-1.879L2.16 9.795a.53.53 0 0 1 .294-.906l5.165-.755a2.122 2.122 0 0 0 1.597-1.16z" /></g><line x1="392.6" x2="392.6" y1="164" y2="548" stroke="#30363d" stroke-dasharray="2 4"/><circle cx="392.6" cy="146" r="15" fill="#161b22" stroke="#30363d"/><g transform="translate(383.6,137.0) scale(0.7500)" fill="none" stroke="#9198a1" stroke-width="2" stroke-linecap="round" stroke-linejoin="round"><path d="m21.73 18-8-14a2 2 0 0 0-3.48 0l-8 14A2 2 0 0 0 4 21h16a2 2 0 0 0 1.73-3" /><path d="M12 9v4" /><path d="M12 17h.01" /></g><line x1="468.3" x2="468.3" y1="164" y2="548" stroke="#30363d" stroke-dasharray="2 4"/><circle cx="468.3" cy="146" r="15" fill="#161b22" stroke="#30363d"/><g transform="translate(459.3,137.0) scale(0.7500)" fill="none" stroke="#9198a1" stroke-width="2" stroke-linecap="round" stroke-linejoin="round"><path d="M7 18v-6a5 5 0 1 1 10 0v6" /><path d="M5 21a1 1 0 0 0 1 1h12a1 1 0 0 0 1-1v-1a2 2 0 0 0-2-2H7a2 2 0 0 0-2 2z" /><path d="M21 12h1" /><path d="M18.5 4.5 18 5" /><path d="M2 12h1" /><path d="M12 2v1" /><path d="m4.929 4.929.707.707" /><path d="M12 12v6" /></g><line x1="543.9" x2="543.9" y1="164" y2="548" stroke="#30363d" stroke-dasharray="2 4"/><circle cx="543.9" cy="146" r="15" fill="#161b22" stroke="#30363d"/><g transform="translate(534.9,137.0) scale(0.7500)" fill="none" stroke="#9198a1" stroke-width="2" stroke-linecap="round" stroke-linejoin="round"><path d="m2 7 4.41-4.41A2 2 0 0 1 7.83 2h8.34a2 2 0 0 1 1.42.59L22 7" /><path d="M4 12v8a2 2 0 0 0 2 2h12a2 2 0 0 0 2-2v-8" /><path d="M15 22v-4a2 2 0 0 0-2-2h-2a2 2 0 0 0-2 2v4" /><path d="M2 7h20" /><path d="M22 7v3a2 2 0 0 1-2 2a2.7 2.7 0 0 1-1.59-.63.7.7 0 0 0-.82 0A2.7 2.7 0 0 1 16 12a2.7 2.7 0 0 1-1.59-.63.7.7 0 0 0-.82 0A2.7 2.7 0 0 1 12 12a2.7 2.7 0 0 1-1.59-.63.7.7 0 0 0-.82 0A2.7 2.7 0 0 1 8 12a2.7 2.7 0 0 1-1.59-.63.7.7 0 0 0-.82 0A2.7 2.7 0 0 1 4 12a2 2 0 0 1-2-2V7" /></g><line x1="619.6" x2="619.6" y1="164" y2="548" stroke="#30363d" stroke-dasharray="2 4"/><circle cx="619.6" cy="146" r="15" fill="#161b22" stroke="#30363d"/><g transform="translate(610.6,137.0) scale(0.7500)" fill="none" stroke="#9198a1" stroke-width="2" stroke-linecap="round" stroke-linejoin="round"><path d="M10 2v2" /><path d="M14 2v2" /><path d="M16 8a1 1 0 0 1 1 1v8a4 4 0 0 1-4 4H7a4 4 0 0 1-4-4V9a1 1 0 0 1 1-1h14a4 4 0 1 1 0 8h-1" /><path d="M6 2v2" /></g><line x1="695.2" x2="695.2" y1="164" y2="548" stroke="#30363d" stroke-dasharray="2 4"/><circle cx="695.2" cy="146" r="15" fill="#161b22" stroke="#30363d"/><g transform="translate(686.2,137.0) scale(0.7500)" fill="none" stroke="#9198a1" stroke-width="2" stroke-linecap="round" stroke-linejoin="round"><path d="M11 15h2a2 2 0 1 0 0-4h-3c-.6 0-1.1.2-1.4.6L3 17" /><path d="m7 21 1.6-1.4c.3-.4.8-.6 1.4-.6h4c1.1 0 2.1-.4 2.8-1.2l4.6-4.4a2 2 0 0 0-2.75-2.91l-4.2 3.9" /><path d="m2 16 6 6" /><circle cx="16" cy="9" r="2.9" /><circle cx="6" cy="5" r="3" /></g><line x1="770.9" x2="770.9" y1="164" y2="548" stroke="#30363d" stroke-dasharray="2 4"/><circle cx="770.9" cy="146" r="15" fill="#161b22" stroke="#30363d"/><g transform="translate(761.9,137.0) scale(0.7500)" fill="none" stroke="#9198a1" stroke-width="2" stroke-linecap="round" stroke-linejoin="round"><path d="M14.7 6.3a1 1 0 0 0 0 1.4l1.6 1.6a1 1 0 0 0 1.4 0l3.77-3.77a6 6 0 0 1-7.94 7.94l-6.91 6.91a2.12 2.12 0 0 1-3-3l6.91-6.91a6 6 0 0 1 7.94-7.94l-3.76 3.76z" /></g><text x="90.0" y="132.0" font-family="-apple-system,BlinkMacSystemFont,'Segoe UI','Noto Sans',Helvetica,Arial,sans-serif" font-size="12" font-weight="600" fill="#6e7681" text-anchor="start" >Scripted events</text><polyline points="90.0,496.8 127.8,477.5 165.7,472.8 203.5,451.7 241.3,435.2 279.1,417.3 317.0,393.9 354.8,375.1 392.6,359.0 430.4,343.5 468.3,330.3 506.1,313.1 543.9,304.6 581.7,293.8 619.6,281.7 657.4,271.0 695.2,260.7 733.0,263.1 770.9,250.5 808.7,246.1 846.5,232.7 884.3,222.7 922.2,210.7 960.0,196.3" fill="none" stroke="#6e7681" stroke-width="2" stroke-linejoin="round" stroke-dasharray="6 4"/><circle cx="960.0" cy="196.3" r="3.5" fill="#6e7681"/><polyline points="90.0,496.9 127.8,481.6 165.7,472.1 203.5,458.1 241.3,446.5 279.1,429.7 317.0,408.2 354.8,393.1 392.6,382.8 430.4,374.7 468.3,368.2 506.1,355.1 543.9,349.6 581.7,342.2 619.6,334.3 657.4,328.5 695.2,323.3 733.0,325.8 770.9,316.2 808.7,312.4 846.5,302.1 884.3,295.7 922.2,287.5 960.0,276.9" fill="none" stroke="#6e7681" stroke-width="2" stroke-linejoin="round" stroke-dasharray="2 4"/><circle cx="960.0" cy="276.9" r="3.5" fill="#6e7681"/><polyline points="90.0,504.4 127.8,489.6 165.7,477.6 203.5,464.2 241.3,449.8 279.1,437.5 317.0,424.4 354.8,413.4 392.6,402.7 430.4,395.9 468.3,390.4 506.1,384.8 543.9,380.4 581.7,375.3 619.6,369.9 657.4,418.2 695.2,413.4 733.0,420.0 770.9,412.6 808.7,412.5 846.5,403.4 884.3,396.4 922.2,384.9 960.0,372.5" fill="none" stroke="#6e7681" stroke-width="2" stroke-linejoin="round" stroke-dasharray="1 6"/><circle cx="960.0" cy="372.5" r="3.5" fill="#6e7681"/><polyline points="90.0,501.7 127.8,490.0 165.7,484.6 203.5,470.8 241.3,460.0 279.1,448.3 317.0,432.1 354.8,423.9 392.6,418.9 430.4,412.0 468.3,408.8 506.1,401.1 543.9,401.0 581.7,397.6 619.6,391.6 657.4,388.5 695.2,384.1 733.0,379.6 770.9,368.6 808.7,378.0 846.5,367.7 884.3,364.0 922.2,351.8 960.0,334.8" fill="none" stroke="#3987e5" stroke-width="3" stroke-linejoin="round"/><circle cx="960.0" cy="334.8" r="4.5" fill="#3987e5"/><polyline points="90.0,503.4 127.8,489.5 165.7,478.8 203.5,459.8 241.3,447.5 279.1,434.3 317.0,417.9 354.8,406.1 392.6,397.9 430.4,389.3 468.3,383.0 506.1,372.6 543.9,369.4 581.7,367.5 619.6,361.7 657.4,357.5 695.2,350.5 733.0,377.5 770.9,369.0 808.7,377.2 846.5,368.9 884.3,358.3 922.2,349.0 960.0,337.3" fill="none" stroke="#e8703f" stroke-width="3" stroke-linejoin="round"/><circle cx="960.0" cy="337.3" r="4.5" fill="#e8703f"/><polyline points="90.0,512.4 127.8,501.3 165.7,490.6 203.5,470.9 241.3,456.8 279.1,443.5 317.0,426.2 354.8,415.1 392.6,406.6 430.4,400.5 468.3,396.5 506.1,387.5 543.9,386.1 581.7,380.7 619.6,369.0 657.4,361.7 695.2,352.6 733.0,377.5 770.9,364.7 808.7,456.3 846.5,445.2 884.3,431.9 922.2,419.6 960.0,404.9" fill="none" stroke="#22b47f" stroke-width="3" stroke-linejoin="round"/><circle cx="960.0" cy="404.9" r="4.5" fill="#22b47f"/><polyline points="90.0,506.4 127.8,496.5 165.7,492.5 203.5,481.3 241.3,470.3 279.1,455.2 317.0,437.4 354.8,427.1 392.6,419.9 430.4,415.5 468.3,413.6 506.1,405.7 543.9,408.8 581.7,412.8 619.6,415.4 657.4,414.8 695.2,413.3 733.0,446.3 770.9,442.2 808.7,439.7 846.5,435.4 884.3,438.1 922.2,433.9 960.0,426.7" fill="none" stroke="#e0a21a" stroke-width="3" stroke-linejoin="round"/><circle cx="960.0" cy="426.7" r="4.5" fill="#e0a21a"/><text x="974.0" y="200.3" font-family="-apple-system,BlinkMacSystemFont,'Segoe UI','Noto Sans',Helvetica,Arial,sans-serif" font-size="13" font-weight="500" fill="#9198a1" text-anchor="start" >Tuned (hindsight)</text><text x="1164.0" y="200.3" font-family="-apple-system,BlinkMacSystemFont,'Segoe UI','Noto Sans',Helvetica,Arial,sans-serif" font-size="13" font-weight="700" fill="#9198a1" text-anchor="end" >$75.9k</text><text x="974.0" y="280.9" font-family="-apple-system,BlinkMacSystemFont,'Segoe UI','Noto Sans',Helvetica,Arial,sans-serif" font-size="13" font-weight="500" fill="#9198a1" text-anchor="start" >Rule-based</text><text x="1164.0" y="280.9" font-family="-apple-system,BlinkMacSystemFont,'Segoe UI','Noto Sans',Helvetica,Arial,sans-serif" font-size="13" font-weight="700" fill="#9198a1" text-anchor="end" >$63.6k</text><text x="974.0" y="338.8" font-family="-apple-system,BlinkMacSystemFont,'Segoe UI','Noto Sans',Helvetica,Arial,sans-serif" font-size="13" font-weight="700" fill="#f0f6fc" text-anchor="start" >Claude Fable 5.1</text><text x="1164.0" y="338.8" font-family="-apple-system,BlinkMacSystemFont,'Segoe UI','Noto Sans',Helvetica,Arial,sans-serif" font-size="13" font-weight="700" fill="#3987e5" text-anchor="end" >$54.7k</text><text x="974.0" y="360.8" font-family="-apple-system,BlinkMacSystemFont,'Segoe UI','Noto Sans',Helvetica,Arial,sans-serif" font-size="13" font-weight="700" fill="#f0f6fc" text-anchor="start" >GPT-6.1 Sol</text><text x="1164.0" y="360.8" font-family="-apple-system,BlinkMacSystemFont,'Segoe UI','Noto Sans',Helvetica,Arial,sans-serif" font-size="13" font-weight="700" fill="#e8703f" text-anchor="end" >$44.4k</text><text x="974.0" y="382.8" font-family="-apple-system,BlinkMacSystemFont,'Segoe UI','Noto Sans',Helvetica,Arial,sans-serif" font-size="13" font-weight="500" fill="#9198a1" text-anchor="start" >Do nothing</text><text x="1164.0" y="382.8" font-family="-apple-system,BlinkMacSystemFont,'Segoe UI','Noto Sans',Helvetica,Arial,sans-serif" font-size="13" font-weight="700" fill="#9198a1" text-anchor="end" >$48.8k</text><text x="974.0" y="408.9" font-family="-apple-system,BlinkMacSystemFont,'Segoe UI','Noto Sans',Helvetica,Arial,sans-serif" font-size="13" font-weight="700" fill="#f0f6fc" text-anchor="start" >Gemini 3.1 Pro</text><text x="1164.0" y="408.9" font-family="-apple-system,BlinkMacSystemFont,'Segoe UI','Noto Sans',Helvetica,Arial,sans-serif" font-size="13" font-weight="700" fill="#22b47f" text-anchor="end" >$44.0k</text><text x="974.0" y="430.9" font-family="-apple-system,BlinkMacSystemFont,'Segoe UI','Noto Sans',Helvetica,Arial,sans-serif" font-size="13" font-weight="700" fill="#f0f6fc" text-anchor="start" >Grok 4.7</text><text x="1164.0" y="430.9" font-family="-apple-system,BlinkMacSystemFont,'Segoe UI','Noto Sans',Helvetica,Arial,sans-serif" font-size="13" font-weight="700" fill="#e0a21a" text-anchor="end" >$40.4k</text><text x="1164.0" y="158.0" font-family="-apple-system,BlinkMacSystemFont,'Segoe UI','Noto Sans',Helvetica,Arial,sans-serif" font-size="11" font-weight="600" fill="#6e7681" text-anchor="end" >final equity</text><text x="90.0" y="594.0" font-family="-apple-system,BlinkMacSystemFont,'Segoe UI','Noto Sans',Helvetica,Arial,sans-serif" font-size="12" font-weight="400" fill="#6e7681" text-anchor="start" >Final equity = cash + inventory − expected pending legal liabilities. Gemini&#x27;s dip at ~wk 20 is a $40k retaliation suit; GPT&#x27;s cash ends high but one run carries a pending one (75% likely).</text></svg>