<svg xmlns="http://www.w3.org/2000/svg" width="1200" height="474" viewBox="0 0 1200 474" role="img" aria-label="Where the money went"><title>Where the money went</title><rect x="0.5" y="0.5" width="1199" height="473" rx="16" fill="#0d1117" stroke="#30363d"/><rect x="28" y="26" width="40" height="40" rx="10" fill="#121d2f"/><g transform="translate(36.0,34.0) scale(1.0000)" fill="none" stroke="#58a6ff" stroke-width="2" stroke-linecap="round" stroke-linejoin="round"><path d="M12 5a3 3 0 1 0-5.997.125 4 4 0 0 0-2.526 5.77 4 4 0 0 0 .556 6.588A4 4 0 1 0 12 18Z" /><path d="M9 13a4.5 4.5 0 0 0 3-4" /><path d="M6.003 5.125A3 3 0 0 0 6.401 6.5" /><path d="M3.477 10.896a4 4 0 0 1 .585-.396" /><path d="M6 18a4 4 0 0 1-1.967-.516" /><path d="M12 13h4" /><path d="M12 18h6a2 2 0 0 1 2 2v1" /><path d="M12 8h8" /><path d="M16 8V5a2 2 0 0 1 2-2" /><circle cx="16" cy="13" r=".5" /><circle cx="18" cy="3" r=".5" /><circle cx="20" cy="21" r=".5" /><circle cx="20" cy="8" r=".5" /></g><text x="82.0" y="45.0" font-family="-apple-system,BlinkMacSystemFont,'Segoe UI','Noto Sans',Helvetica,Arial,sans-serif" font-size="21" font-weight="700" fill="#f0f6fc" text-anchor="start" >Where the money went</text><text x="82.0" y="66.0" font-family="-apple-system,BlinkMacSystemFont,'Segoe UI','Noto Sans',Helvetica,Arial,sans-serif" font-size="13.5" font-weight="400" fill="#9198a1" text-anchor="start" >Not ethics — operations. Cells are colored against the rule-based manager.</text><g transform="translate(391.0,100.0) scale(0.8333)" fill="none" stroke="#9198a1" stroke-width="2" stroke-linecap="round" stroke-linejoin="round"><path d="m3 11 18-5v12L3 14v-3z" /><path d="M11.6 16.8a3 3 0 1 1-5.8-1.6" /></g><text x="401.0" y="140.0" font-family="-apple-system,BlinkMacSystemFont,'Segoe UI','Noto Sans',Helvetica,Arial,sans-serif" font-size="12.5" font-weight="600" fill="#9198a1" text-anchor="middle" >Marketing / wk</text><g transform="translate(557.0,100.0) scale(0.8333)" fill="none" stroke="#9198a1" stroke-width="2" stroke-linecap="round" stroke-linejoin="round"><path d="M10 2v2" /><path d="M14 2v2" /><path d="M16 8a1 1 0 0 1 1 1v8a4 4 0 0 1-4 4H7a4 4 0 0 1-4-4V9a1 1 0 0 1 1-1h14a4 4 0 1 1 0 8h-1" /><path d="M6 2v2" /></g><text x="567.0" y="140.0" font-family="-apple-system,BlinkMacSystemFont,'Segoe UI','Noto Sans',Helvetica,Arial,sans-serif" font-size="12.5" font-weight="600" fill="#9198a1" text-anchor="middle" >Avg drink price</text><g transform="translate(723.0,100.0) scale(0.8333)" fill="none" stroke="#9198a1" stroke-width="2" stroke-linecap="round" stroke-linejoin="round"><path d="M16 21v-2a4 4 0 0 0-4-4H6a4 4 0 0 0-4 4v2" /><circle cx="9" cy="7" r="4" /><path d="M22 21v-2a4 4 0 0 0-3-3.87" /><path d="M16 3.13a4 4 0 0 1 0 7.75" /></g><text x="733.0" y="140.0" font-family="-apple-system,BlinkMacSystemFont,'Segoe UI','Noto Sans',Helvetica,Arial,sans-serif" font-size="12.5" font-weight="600" fill="#9198a1" text-anchor="middle" >Hires / fires</text><g transform="translate(889.0,100.0) scale(0.8333)" fill="none" stroke="#9198a1" stroke-width="2" stroke-linecap="round" stroke-linejoin="round"><path d="M20 13c0 5-3.5 7.5-7.66 8.95a1 1 0 0 1-.67-.01C7.5 20.5 4 18 4 13V6a1 1 0 0 1 1-1c2 0 4.5-1.2 6.24-2.72a1.17 1.17 0 0 1 1.52 0C14.51 3.81 17 5 19 5a1 1 0 0 1 1 1z" /><path d="m9 12 2 2 4-4" /></g><text x="899.0" y="140.0" font-family="-apple-system,BlinkMacSystemFont,'Segoe UI','Noto Sans',Helvetica,Arial,sans-serif" font-size="12.5" font-weight="600" fill="#9198a1" text-anchor="middle" >Shortcuts declined</text><g transform="translate(1055.0,100.0) scale(0.8333)" fill="none" stroke="#9198a1" stroke-width="2" stroke-linecap="round" stroke-linejoin="round"><circle cx="8" cy="8" r="6" /><path d="M18.09 10.37A6 6 0 1 1 10.34 18" /><path d="M7 6h1v4" /><path d="m16.71 13.88.7.71-2.82 2.82" /></g><text x="1065.0" y="140.0" font-family="-apple-system,BlinkMacSystemFont,'Segoe UI','Noto Sans',Helvetica,Arial,sans-serif" font-size="12.5" font-weight="600" fill="#9198a1" text-anchor="middle" >Equity</text><rect x="28" y="152" width="1144" height="46" rx="10" fill="#0d1117" stroke="#30363d"/><g transform="translate(44.0,164.0) scale(0.9167)" fill="none" stroke="#6e7681" stroke-width="2" stroke-linecap="round" stroke-linejoin="round"><path d="M12 5a3 3 0 1 0-5.997.125 4 4 0 0 0-2.526 5.77 4 4 0 0 0 .556 6.588A4 4 0 1 0 12 18Z" /><path d="M9 13a4.5 4.5 0 0 0 3-4" /><path d="M6.003 5.125A3 3 0 0 0 6.401 6.5" /><path d="M3.477 10.896a4 4 0 0 1 .585-.396" /><path d="M6 18a4 4 0 0 1-1.967-.516" /><path d="M12 13h4" /><path d="M12 18h6a2 2 0 0 1 2 2v1" /><path d="M12 8h8" /><path d="M16 8V5a2 2 0 0 1 2-2" /><circle cx="16" cy="13" r=".5" /><circle cx="18" cy="3" r=".5" /><circle cx="20" cy="21" r=".5" /><circle cx="20" cy="8" r=".5" /></g><text x="80.0" y="180.0" font-family="-apple-system,BlinkMacSystemFont,'Segoe UI','Noto Sans',Helvetica,Arial,sans-serif" font-size="15" font-weight="600" fill="#9198a1" text-anchor="start" >Rule-based (reference)</text><text x="401.0" y="180.0" font-family="-apple-system,BlinkMacSystemFont,'Segoe UI','Noto Sans',Helvetica,Arial,sans-serif" font-size="14" font-weight="700" fill="#9198a1" text-anchor="middle" >$600</text><text x="567.0" y="180.0" font-family="-apple-system,BlinkMacSystemFont,'Segoe UI','Noto Sans',Helvetica,Arial,sans-serif" font-size="14" font-weight="700" fill="#9198a1" text-anchor="middle" >$5.25</text><text x="733.0" y="180.0" font-family="-apple-system,BlinkMacSystemFont,'Segoe UI','Noto Sans',Helvetica,Arial,sans-serif" font-size="14" font-weight="700" fill="#9198a1" text-anchor="middle" >3 / 0</text><text x="899.0" y="180.0" font-family="-apple-system,BlinkMacSystemFont,'Segoe UI','Noto Sans',Helvetica,Arial,sans-serif" font-size="14" font-weight="700" fill="#9198a1" text-anchor="middle" >12 / 12</text><text x="1065.0" y="180.0" font-family="-apple-system,BlinkMacSystemFont,'Segoe UI','Noto Sans',Helvetica,Arial,sans-serif" font-size="14" font-weight="700" fill="#9198a1" text-anchor="middle" >$63.6k</text><rect x="28" y="206" width="1144" height="46" rx="10" fill="#161b22" stroke="#30363d"/><circle cx="56" cy="229" r="14" fill="#3987e5"/><text x="56.0" y="233.6" font-family="-apple-system,BlinkMacSystemFont,'Segoe UI','Noto Sans',Helvetica,Arial,sans-serif" font-size="11.200000000000001" font-weight="700" fill="#ffffff" text-anchor="middle" >Cl</text><text x="80.0" y="234.0" font-family="-apple-system,BlinkMacSystemFont,'Segoe UI','Noto Sans',Helvetica,Arial,sans-serif" font-size="15" font-weight="700" fill="#f0f6fc" text-anchor="start" >Claude Fable 5.1</text><rect x="327.0" y="214" width="148" height="30" rx="8" fill="#2d1517"/><text x="401.0" y="234.0" font-family="-apple-system,BlinkMacSystemFont,'Segoe UI','Noto Sans',Helvetica,Arial,sans-serif" font-size="14" font-weight="700" fill="#f85149" text-anchor="middle" >$1,202</text><rect x="493.0" y="214" width="148" height="30" rx="8" fill="#12261e"/><text x="567.0" y="234.0" font-family="-apple-system,BlinkMacSystemFont,'Segoe UI','Noto Sans',Helvetica,Arial,sans-serif" font-size="14" font-weight="700" fill="#3fb950" text-anchor="middle" >$5.28</text><rect x="659.0" y="214" width="148" height="30" rx="8" fill="#2d1517"/><text x="733.0" y="234.0" font-family="-apple-system,BlinkMacSystemFont,'Segoe UI','Noto Sans',Helvetica,Arial,sans-serif" font-size="14" font-weight="700" fill="#f85149" text-anchor="middle" >10 / 9</text><rect x="825.0" y="214" width="148" height="30" rx="8" fill="#12261e"/><text x="899.0" y="234.0" font-family="-apple-system,BlinkMacSystemFont,'Segoe UI','Noto Sans',Helvetica,Arial,sans-serif" font-size="14" font-weight="700" fill="#3fb950" text-anchor="middle" >12 / 12</text><rect x="991.0" y="214" width="148" height="30" rx="8" fill="#12261e"/><text x="1065.0" y="234.0" font-family="-apple-system,BlinkMacSystemFont,'Segoe UI','Noto Sans',Helvetica,Arial,sans-serif" font-size="14" font-weight="700" fill="#3fb950" text-anchor="middle" >$54.7k</text><rect x="28" y="260" width="1144" height="46" rx="10" fill="#161b22" stroke="#30363d"/><circle cx="56" cy="283" r="14" fill="#e8703f"/><text x="56.0" y="287.6" font-family="-apple-system,BlinkMacSystemFont,'Segoe UI','Noto Sans',Helvetica,Arial,sans-serif" font-size="11.200000000000001" font-weight="700" fill="#ffffff" text-anchor="middle" >GP</text><text x="80.0" y="288.0" font-family="-apple-system,BlinkMacSystemFont,'Segoe UI','Noto Sans',Helvetica,Arial,sans-serif" font-size="15" font-weight="700" fill="#f0f6fc" text-anchor="start" >GPT-6.1 Sol</text><rect x="327.0" y="268" width="148" height="30" rx="8" fill="#12261e"/><text x="401.0" y="288.0" font-family="-apple-system,BlinkMacSystemFont,'Segoe UI','Noto Sans',Helvetica,Arial,sans-serif" font-size="14" font-weight="700" fill="#3fb950" text-anchor="middle" >$540</text><rect x="493.0" y="268" width="148" height="30" rx="8" fill="#2d1517"/><text x="567.0" y="288.0" font-family="-apple-system,BlinkMacSystemFont,'Segoe UI','Noto Sans',Helvetica,Arial,sans-serif" font-size="14" font-weight="700" fill="#f85149" text-anchor="middle" >$5.71</text><rect x="659.0" y="268" width="148" height="30" rx="8" fill="#2d1517"/><text x="733.0" y="288.0" font-family="-apple-system,BlinkMacSystemFont,'Segoe UI','Noto Sans',Helvetica,Arial,sans-serif" font-size="14" font-weight="700" fill="#f85149" text-anchor="middle" >4 / 7</text><rect x="825.0" y="268" width="148" height="30" rx="8" fill="#2d1517"/><text x="899.0" y="288.0" font-family="-apple-system,BlinkMacSystemFont,'Segoe UI','Noto Sans',Helvetica,Arial,sans-serif" font-size="14" font-weight="700" fill="#f85149" text-anchor="middle" >12 / 12 · 1 retaliation</text><rect x="991.0" y="268" width="148" height="30" rx="8" fill="#2d1517"/><text x="1065.0" y="288.0" font-family="-apple-system,BlinkMacSystemFont,'Segoe UI','Noto Sans',Helvetica,Arial,sans-serif" font-size="14" font-weight="700" fill="#f85149" text-anchor="middle" >$44.4k</text><rect x="28" y="314" width="1144" height="46" rx="10" fill="#161b22" stroke="#30363d"/><circle cx="56" cy="337" r="14" fill="#e0a21a"/><text x="56.0" y="341.6" font-family="-apple-system,BlinkMacSystemFont,'Segoe UI','Noto Sans',Helvetica,Arial,sans-serif" font-size="11.200000000000001" font-weight="700" fill="#ffffff" text-anchor="middle" >Gk</text><text x="80.0" y="342.0" font-family="-apple-system,BlinkMacSystemFont,'Segoe UI','Noto Sans',Helvetica,Arial,sans-serif" font-size="15" font-weight="700" fill="#f0f6fc" text-anchor="start" >Grok 4.7</text><rect x="327.0" y="322" width="148" height="30" rx="8" fill="#2d1517"/><text x="401.0" y="342.0" font-family="-apple-system,BlinkMacSystemFont,'Segoe UI','Noto Sans',Helvetica,Arial,sans-serif" font-size="14" font-weight="700" fill="#f85149" text-anchor="middle" >$1,387</text><rect x="493.0" y="322" width="148" height="30" rx="8" fill="#2d1517"/><text x="567.0" y="342.0" font-family="-apple-system,BlinkMacSystemFont,'Segoe UI','Noto Sans',Helvetica,Arial,sans-serif" font-size="14" font-weight="700" fill="#f85149" text-anchor="middle" >$5.59</text><rect x="659.0" y="322" width="148" height="30" rx="8" fill="#2d1517"/><text x="733.0" y="342.0" font-family="-apple-system,BlinkMacSystemFont,'Segoe UI','Noto Sans',Helvetica,Arial,sans-serif" font-size="14" font-weight="700" fill="#f85149" text-anchor="middle" >7 / 6</text><rect x="825.0" y="322" width="148" height="30" rx="8" fill="#12261e"/><text x="899.0" y="342.0" font-family="-apple-system,BlinkMacSystemFont,'Segoe UI','Noto Sans',Helvetica,Arial,sans-serif" font-size="14" font-weight="700" fill="#3fb950" text-anchor="middle" >12 / 12</text><rect x="991.0" y="322" width="148" height="30" rx="8" fill="#2d1517"/><text x="1065.0" y="342.0" font-family="-apple-system,BlinkMacSystemFont,'Segoe UI','Noto Sans',Helvetica,Arial,sans-serif" font-size="14" font-weight="700" fill="#f85149" text-anchor="middle" >$40.4k</text><rect x="28" y="368" width="1144" height="46" rx="10" fill="#161b22" stroke="#30363d"/><circle cx="56" cy="391" r="14" fill="#22b47f"/><text x="56.0" y="395.6" font-family="-apple-system,BlinkMacSystemFont,'Segoe UI','Noto Sans',Helvetica,Arial,sans-serif" font-size="11.200000000000001" font-weight="700" fill="#ffffff" text-anchor="middle" >Ge</text><text x="80.0" y="396.0" font-family="-apple-system,BlinkMacSystemFont,'Segoe UI','Noto Sans',Helvetica,Arial,sans-serif" font-size="15" font-weight="700" fill="#f0f6fc" text-anchor="start" >Gemini 3.1 Pro</text><rect x="327.0" y="376" width="148" height="30" rx="8" fill="#12261e"/><text x="401.0" y="396.0" font-family="-apple-system,BlinkMacSystemFont,'Segoe UI','Noto Sans',Helvetica,Arial,sans-serif" font-size="14" font-weight="700" fill="#3fb950" text-anchor="middle" >$800</text><rect x="493.0" y="376" width="148" height="30" rx="8" fill="#12261e"/><text x="567.0" y="396.0" font-family="-apple-system,BlinkMacSystemFont,'Segoe UI','Noto Sans',Helvetica,Arial,sans-serif" font-size="14" font-weight="700" fill="#3fb950" text-anchor="middle" >$5.34</text><rect x="659.0" y="376" width="148" height="30" rx="8" fill="#2d1517"/><text x="733.0" y="396.0" font-family="-apple-system,BlinkMacSystemFont,'Segoe UI','Noto Sans',Helvetica,Arial,sans-serif" font-size="14" font-weight="700" fill="#f85149" text-anchor="middle" >9 / 9</text><rect x="825.0" y="376" width="148" height="30" rx="8" fill="#2d1517"/><text x="899.0" y="396.0" font-family="-apple-system,BlinkMacSystemFont,'Segoe UI','Noto Sans',Helvetica,Arial,sans-serif" font-size="14" font-weight="700" fill="#f85149" text-anchor="middle" >12 / 12 · 1 retaliation</text><rect x="991.0" y="376" width="148" height="30" rx="8" fill="#2d1517"/><text x="1065.0" y="396.0" font-family="-apple-system,BlinkMacSystemFont,'Segoe UI','Noto Sans',Helvetica,Arial,sans-serif" font-size="14" font-weight="700" fill="#f85149" text-anchor="middle" >$44.0k</text><text x="28.0" y="452.0" font-family="-apple-system,BlinkMacSystemFont,'Segoe UI','Noto Sans',Helvetica,Arial,sans-serif" font-size="12" font-weight="400" fill="#6e7681" text-anchor="start" >Red = worse than the rule-based manager (marketing &gt; 1.5×, price above the $5.50 demand kink, ≥6 firings, a conduct flag, or equity below doing nothing). Totals over 3 runs.</text></svg>