<svg xmlns="http://www.w3.org/2000/svg" width="1200" height="506" viewBox="0 0 1200 506" role="img" aria-label="Value added vs doing nothing"><title>Value added vs doing nothing</title><rect x="0.5" y="0.5" width="1199" height="505" rx="16" fill="#ffffff" stroke="#d0d7de"/><rect x="28" y="26" width="40" height="40" rx="10" fill="#ddf4ff"/><g transform="translate(36.0,34.0) scale(1.0000)" fill="none" stroke="#2a78d6" stroke-width="2" stroke-linecap="round" stroke-linejoin="round"><polyline points="22 7 13.5 15.5 8.5 10.5 2 17" /><polyline points="16 7 22 7 22 13" /></g><text x="82.0" y="45.0" font-family="-apple-system,BlinkMacSystemFont,'Segoe UI','Noto Sans',Helvetica,Arial,sans-serif" font-size="21" font-weight="700" fill="#1f2328" text-anchor="start" >Value added vs. doing nothing</text><text x="82.0" y="66.0" font-family="-apple-system,BlinkMacSystemFont,'Segoe UI','Noto Sans',Helvetica,Arial,sans-serif" font-size="13.5" font-weight="400" fill="#59636e" text-anchor="start" >Final equity minus the do-nothing baseline ($48.8k). Right of zero = the manager helped.</text><line x1="560" x2="560" y1="112" y2="456" stroke="#59636e" stroke-width="1.5"/><text x="560.0" y="104.0" font-family="-apple-system,BlinkMacSystemFont,'Segoe UI','Noto Sans',Helvetica,Arial,sans-serif" font-size="12" font-weight="600" fill="#59636e" text-anchor="middle" >do nothing</text><rect x="560.0" y="138" width="257.6" height="28" rx="6" fill="#8c959f" fill-opacity="0.55"/><g transform="translate(59.0,141.0) scale(0.9167)" fill="none" stroke="#8c959f" stroke-width="2" stroke-linecap="round" stroke-linejoin="round"><circle cx="12" cy="12" r="10" /><circle cx="12" cy="12" r="6" /><circle cx="12" cy="12" r="2" /></g><text x="98.0" y="157.0" font-family="-apple-system,BlinkMacSystemFont,'Segoe UI','Noto Sans',Helvetica,Arial,sans-serif" font-size="15" font-weight="500" fill="#1f2328" text-anchor="start" >Tuned policy (hindsight)</text><text x="827.6" y="157.0" font-family="-apple-system,BlinkMacSystemFont,'Segoe UI','Noto Sans',Helvetica,Arial,sans-serif" font-size="15" font-weight="700" fill="#1a7f37" text-anchor="start" >+$27.1k</text><rect x="560.0" y="194" width="140.5" height="28" rx="6" fill="#8c959f" fill-opacity="0.55"/><g transform="translate(59.0,197.0) scale(0.9167)" fill="none" stroke="#8c959f" stroke-width="2" stroke-linecap="round" stroke-linejoin="round"><path d="M12 5a3 3 0 1 0-5.997.125 4 4 0 0 0-2.526 5.77 4 4 0 0 0 .556 6.588A4 4 0 1 0 12 18Z" /><path d="M9 13a4.5 4.5 0 0 0 3-4" /><path d="M6.003 5.125A3 3 0 0 0 6.401 6.5" /><path d="M3.477 10.896a4 4 0 0 1 .585-.396" /><path d="M6 18a4 4 0 0 1-1.967-.516" /><path d="M12 13h4" /><path d="M12 18h6a2 2 0 0 1 2 2v1" /><path d="M12 8h8" /><path d="M16 8V5a2 2 0 0 1 2-2" /><circle cx="16" cy="13" r=".5" /><circle cx="18" cy="3" r=".5" /><circle cx="20" cy="21" r=".5" /><circle cx="20" cy="8" r=".5" /></g><text x="98.0" y="213.0" font-family="-apple-system,BlinkMacSystemFont,'Segoe UI','Noto Sans',Helvetica,Arial,sans-serif" font-size="15" font-weight="500" fill="#1f2328" text-anchor="start" >Rule-based manager</text><text x="710.5" y="213.0" font-family="-apple-system,BlinkMacSystemFont,'Segoe UI','Noto Sans',Helvetica,Arial,sans-serif" font-size="15" font-weight="700" fill="#1a7f37" text-anchor="start" >+$14.8k</text><rect x="560.0" y="250" width="55.7" height="28" rx="6" fill="#2a78d6"/><circle cx="70" cy="264" r="15" fill="#2a78d6"/><text x="70.0" y="268.9" font-family="-apple-system,BlinkMacSystemFont,'Segoe UI','Noto Sans',Helvetica,Arial,sans-serif" font-size="12.0" font-weight="700" fill="#ffffff" text-anchor="middle" >Cl</text><text x="98.0" y="269.0" font-family="-apple-system,BlinkMacSystemFont,'Segoe UI','Noto Sans',Helvetica,Arial,sans-serif" font-size="15" font-weight="700" fill="#1f2328" text-anchor="start" >Claude Fable 5.1</text><text x="625.7" y="269.0" font-family="-apple-system,BlinkMacSystemFont,'Segoe UI','Noto Sans',Helvetica,Arial,sans-serif" font-size="15" font-weight="700" fill="#1a7f37" text-anchor="start" >+$5.9k</text><rect x="518.1" y="306" width="41.9" height="28" rx="6" fill="#eb6834"/><circle cx="70" cy="320" r="15" fill="#eb6834"/><text x="70.0" y="324.9" font-family="-apple-system,BlinkMacSystemFont,'Segoe UI','Noto Sans',Helvetica,Arial,sans-serif" font-size="12.0" font-weight="700" fill="#ffffff" text-anchor="middle" >GP</text><text x="98.0" y="325.0" font-family="-apple-system,BlinkMacSystemFont,'Segoe UI','Noto Sans',Helvetica,Arial,sans-serif" font-size="15" font-weight="700" fill="#1f2328" text-anchor="start" >GPT-6.1 Sol</text><text x="508.1" y="325.0" font-family="-apple-system,BlinkMacSystemFont,'Segoe UI','Noto Sans',Helvetica,Arial,sans-serif" font-size="15" font-weight="700" fill="#cf222e" text-anchor="end" >−$4.4k</text><g transform="translate(1020.0,309.0) scale(0.8333)" fill="none" stroke="#cf222e" stroke-width="2" stroke-linecap="round" stroke-linejoin="round"><path d="M7 18v-6a5 5 0 1 1 10 0v6" /><path d="M5 21a1 1 0 0 0 1 1h12a1 1 0 0 0 1-1v-1a2 2 0 0 0-2-2H7a2 2 0 0 0-2 2z" /><path d="M21 12h1" /><path d="M18.5 4.5 18 5" /><path d="M2 12h1" /><path d="M12 2v1" /><path d="m4.929 4.929.707.707" /><path d="M12 12v6" /></g><text x="1046.0" y="325.0" font-family="-apple-system,BlinkMacSystemFont,'Segoe UI','Noto Sans',Helvetica,Arial,sans-serif" font-size="13" font-weight="600" fill="#cf222e" text-anchor="start" >1 retaliation flag</text><rect x="480.3" y="362" width="79.7" height="28" rx="6" fill="#eda100"/><circle cx="70" cy="376" r="15" fill="#eda100"/><text x="70.0" y="380.9" font-family="-apple-system,BlinkMacSystemFont,'Segoe UI','Noto Sans',Helvetica,Arial,sans-serif" font-size="12.0" font-weight="700" fill="#ffffff" text-anchor="middle" >Gk</text><text x="98.0" y="381.0" font-family="-apple-system,BlinkMacSystemFont,'Segoe UI','Noto Sans',Helvetica,Arial,sans-serif" font-size="15" font-weight="700" fill="#1f2328" text-anchor="start" >Grok 4.7</text><text x="470.3" y="381.0" font-family="-apple-system,BlinkMacSystemFont,'Segoe UI','Noto Sans',Helvetica,Arial,sans-serif" font-size="15" font-weight="700" fill="#cf222e" text-anchor="end" >−$8.4k</text><rect x="514.3" y="418" width="45.7" height="28" rx="6" fill="#1baf7a"/><circle cx="70" cy="432" r="15" fill="#1baf7a"/><text x="70.0" y="436.9" font-family="-apple-system,BlinkMacSystemFont,'Segoe UI','Noto Sans',Helvetica,Arial,sans-serif" font-size="12.0" font-weight="700" fill="#ffffff" text-anchor="middle" >Ge</text><text x="98.0" y="437.0" font-family="-apple-system,BlinkMacSystemFont,'Segoe UI','Noto Sans',Helvetica,Arial,sans-serif" font-size="15" font-weight="700" fill="#1f2328" text-anchor="start" >Gemini 3.1 Pro</text><text x="504.3" y="437.0" font-family="-apple-system,BlinkMacSystemFont,'Segoe UI','Noto Sans',Helvetica,Arial,sans-serif" font-size="15" font-weight="700" fill="#cf222e" text-anchor="end" >−$4.8k</text><g transform="translate(1020.0,421.0) scale(0.8333)" fill="none" stroke="#cf222e" stroke-width="2" stroke-linecap="round" stroke-linejoin="round"><path d="M7 18v-6a5 5 0 1 1 10 0v6" /><path d="M5 21a1 1 0 0 0 1 1h12a1 1 0 0 0 1-1v-1a2 2 0 0 0-2-2H7a2 2 0 0 0-2 2z" /><path d="M21 12h1" /><path d="M18.5 4.5 18 5" /><path d="M2 12h1" /><path d="M12 2v1" /><path d="m4.929 4.929.707.707" /><path d="M12 12v6" /></g><text x="1046.0" y="437.0" font-family="-apple-system,BlinkMacSystemFont,'Segoe UI','Noto Sans',Helvetica,Arial,sans-serif" font-size="13" font-weight="600" fill="#cf222e" text-anchor="start" >1 retaliation flag</text><text x="28.0" y="482.0" font-family="-apple-system,BlinkMacSystemFont,'Segoe UI','Noto Sans',Helvetica,Arial,sans-serif" font-size="12.5" font-weight="400" fill="#818b98" text-anchor="start" >Each bar is the mean of 3 seeds. Three of four frontier models finished below the do-nothing baseline.</text></svg>