<svg xmlns="http://www.w3.org/2000/svg" xmlns:xlink="http://www.w3.org/1999/xlink" width="1100" height="568" viewBox="0 0 1100 568" role="img" aria-label="Hiring audit"><title>Hiring audit</title><defs><symbol id="logo-claude" viewBox="0 0 24 24"><g fill="#f2f2f2" fill-rule="evenodd"><path d="M4.709 15.955l4.72-2.647.08-.23-.08-.128H9.2l-.79-.048-2.698-.073-2.339-.097-2.266-.122-.571-.121L0 11.784l.055-.352.48-.321.686.06 1.52.103 2.278.158 1.652.097 2.449.255h.389l.055-.157-.134-.098-.103-.097-2.358-1.596-2.552-1.688-1.336-.972-.724-.491-.364-.462-.158-1.008.656-.722.881.06.225.061.893.686 1.908 1.476 2.491 1.833.365.304.145-.103.019-.073-.164-.274-1.355-2.446-1.446-2.49-.644-1.032-.17-.619a2.97 2.97 0 01-.104-.729L6.283.134 6.696 0l.996.134.42.364.62 1.414 1.002 2.229 1.555 3.03.456.898.243.832.091.255h.158V9.01l.128-1.706.237-2.095.23-2.695.08-.76.376-.91.747-.492.584.28.48.685-.067.444-.286 1.851-.559 2.903-.364 1.942h.212l.243-.242.985-1.306 1.652-2.064.73-.82.85-.904.547-.431h1.033l.76 1.129-.34 1.166-1.064 1.347-.881 1.142-1.264 1.7-.79 1.36.073.11.188-.02 2.856-.606 1.543-.28 1.841-.315.833.388.091.395-.328.807-1.969.486-2.309.462-3.439.813-.042.03.049.061 1.549.146.662.036h1.622l3.02.225.79.522.474.638-.079.485-1.215.62-1.64-.389-3.829-.91-1.312-.329h-.182v.11l1.093 1.068 2.006 1.81 2.509 2.33.127.578-.322.455-.34-.049-2.205-1.657-.851-.747-1.926-1.62h-.128v.17l.444.649 2.345 3.521.122 1.08-.17.353-.608.213-.668-.122-1.374-1.925-1.415-2.167-1.143-1.943-.14.08-.674 7.254-.316.37-.729.28-.607-.461-.322-.747.322-1.476.389-1.924.315-1.53.286-1.9.17-.632-.012-.042-.14.018-1.434 1.967-2.18 2.945-1.726 1.845-.414.164-.717-.37.067-.662.401-.589 2.388-3.036 1.44-1.882.93-1.086-.006-.158h-.055L4.132 18.56l-1.13.146-.487-.456.061-.746.231-.243 1.908-1.312-.006.006z" fill-rule="nonzero"></path></g></symbol><symbol id="logo-gpt" viewBox="0 0 24 24"><g fill="#f2f2f2" fill-rule="evenodd"><path d="M9.205 8.658v-2.26c0-.19.072-.333.238-.428l4.543-2.616c.619-.357 1.356-.523 2.117-.523 2.854 0 4.662 2.212 4.662 4.566 0 .167 0 .357-.024.547l-4.71-2.759a.797.797 0 00-.856 0l-5.97 3.473zm10.609 8.8V12.06c0-.333-.143-.57-.429-.737l-5.97-3.473 1.95-1.118a.433.433 0 01.476 0l4.543 2.617c1.309.76 2.189 2.378 2.189 3.948 0 1.808-1.07 3.473-2.76 4.163zM7.802 12.703l-1.95-1.142c-.167-.095-.239-.238-.239-.428V5.899c0-2.545 1.95-4.472 4.591-4.472 1 0 1.927.333 2.712.928L8.23 5.067c-.285.166-.428.404-.428.737v6.898zM12 15.128l-2.795-1.57v-3.33L12 8.658l2.795 1.57v3.33L12 15.128zm1.796 7.23c-1 0-1.927-.332-2.712-.927l4.686-2.712c.285-.166.428-.404.428-.737v-6.898l1.974 1.142c.167.095.238.238.238.428v5.233c0 2.545-1.974 4.472-4.614 4.472zm-5.637-5.303l-4.544-2.617c-1.308-.761-2.188-2.378-2.188-3.948A4.482 4.482 0 014.21 6.327v5.423c0 .333.143.571.428.738l5.947 3.449-1.95 1.118a.432.432 0 01-.476 0zm-.262 3.9c-2.688 0-4.662-2.021-4.662-4.519 0-.19.024-.38.047-.57l4.686 2.71c.286.167.571.167.856 0l5.97-3.448v2.26c0 .19-.07.333-.237.428l-4.543 2.616c-.619.357-1.356.523-2.117.523zm5.899 2.83a5.947 5.947 0 005.827-4.756C22.287 18.339 24 15.84 24 13.296c0-1.665-.713-3.282-1.998-4.448.119-.5.19-.999.19-1.498 0-3.401-2.759-5.947-5.946-5.947-.642 0-1.26.095-1.88.31A5.962 5.962 0 0010.205 0a5.947 5.947 0 00-5.827 4.757C1.713 5.447 0 7.945 0 10.49c0 1.666.713 3.283 1.998 4.448-.119.5-.19 1-.19 1.499 0 3.401 2.759 5.946 5.946 5.946.642 0 1.26-.095 1.88-.309a5.96 5.96 0 004.162 1.713z"></path></g></symbol><symbol id="logo-gemini" viewBox="0 0 24 24"><g fill="#f2f2f2" fill-rule="evenodd"><path d="M20.616 10.835a14.147 14.147 0 01-4.45-3.001 14.111 14.111 0 01-3.678-6.452.503.503 0 00-.975 0 14.134 14.134 0 01-3.679 6.452 14.155 14.155 0 01-4.45 3.001c-.65.28-1.318.505-2.002.678a.502.502 0 000 .975c.684.172 1.35.397 2.002.677a14.147 14.147 0 014.45 3.001 14.112 14.112 0 013.679 6.453.502.502 0 00.975 0c.172-.685.397-1.351.677-2.003a14.145 14.145 0 013.001-4.45 14.113 14.113 0 016.453-3.678.503.503 0 000-.975 13.245 13.245 0 01-2.003-.678z"></path><path d="M20.616 10.835a14.147 14.147 0 01-4.45-3.001 14.111 14.111 0 01-3.678-6.452.503.503 0 00-.975 0 14.134 14.134 0 01-3.679 6.452 14.155 14.155 0 01-4.45 3.001c-.65.28-1.318.505-2.002.678a.502.502 0 000 .975c.684.172 1.35.397 2.002.677a14.147 14.147 0 014.45 3.001 14.112 14.112 0 013.679 6.453.502.502 0 00.975 0c.172-.685.397-1.351.677-2.003a14.145 14.145 0 013.001-4.45 14.113 14.113 0 016.453-3.678.503.503 0 000-.975 13.245 13.245 0 01-2.003-.678z"></path><path d="M20.616 10.835a14.147 14.147 0 01-4.45-3.001 14.111 14.111 0 01-3.678-6.452.503.503 0 00-.975 0 14.134 14.134 0 01-3.679 6.452 14.155 14.155 0 01-4.45 3.001c-.65.28-1.318.505-2.002.678a.502.502 0 000 .975c.684.172 1.35.397 2.002.677a14.147 14.147 0 014.45 3.001 14.112 14.112 0 013.679 6.453.502.502 0 00.975 0c.172-.685.397-1.351.677-2.003a14.145 14.145 0 013.001-4.45 14.113 14.113 0 016.453-3.678.503.503 0 000-.975 13.245 13.245 0 01-2.003-.678z"></path><path d="M20.616 10.835a14.147 14.147 0 01-4.45-3.001 14.111 14.111 0 01-3.678-6.452.503.503 0 00-.975 0 14.134 14.134 0 01-3.679 6.452 14.155 14.155 0 01-4.45 3.001c-.65.28-1.318.505-2.002.678a.502.502 0 000 .975c.684.172 1.35.397 2.002.677a14.147 14.147 0 014.45 3.001 14.112 14.112 0 013.679 6.453.502.502 0 00.975 0c.172-.685.397-1.351.677-2.003a14.145 14.145 0 013.001-4.45 14.113 14.113 0 016.453-3.678.503.503 0 000-.975 13.245 13.245 0 01-2.003-.678z"></path></g></symbol><symbol id="logo-grok" viewBox="0 0 24 24"><g fill="#f2f2f2" fill-rule="evenodd"><path d="M9.27 15.29l7.978-5.897c.391-.29.95-.177 1.137.272.98 2.369.542 5.215-1.41 7.169-1.951 1.954-4.667 2.382-7.149 1.406l-2.711 1.257c3.889 2.661 8.611 2.003 11.562-.953 2.341-2.344 3.066-5.539 2.388-8.42l.006.007c-.983-4.232.242-5.924 2.75-9.383.06-.082.12-.164.179-.248l-3.301 3.305v-.01L9.267 15.292M7.623 16.723c-2.792-2.67-2.31-6.801.071-9.184 1.761-1.763 4.647-2.483 7.166-1.425l2.705-1.25a7.808 7.808 0 00-1.829-1A8.975 8.975 0 005.984 5.83c-2.533 2.536-3.33 6.436-1.962 9.764 1.022 2.487-.653 4.246-2.34 6.022-.599.63-1.199 1.259-1.682 1.925l7.62-6.815"></path></g></symbol></defs><rect width="1100" height="568" fill="#0d1117"/><text x="24.0" y="22.0" font-family="ui-monospace,SFMono-Regular,Menlo,Consolas,monospace" font-size="11.2" font-weight="600" fill="#7c7c7c" text-anchor="start" letter-spacing="2">FIG. 8</text><g transform="translate(0,26)"><text x="24.0" y="34.0" font-family="'Source Serif 4','Source Serif Pro',Charter,'Iowan Old Style','Palatino Linotype',Georgia,serif" font-size="21.3" font-weight="500" fill="#f2f2f2" text-anchor="start" >Hiring audit: counterfactual resumes</text><text x="24.0" y="56.0" font-family="'Segoe UI',Aptos,-apple-system,BlinkMacSystemFont,'Helvetica Neue',Arial,sans-serif" font-size="12.9" font-weight="400" fill="#b4b4b4" text-anchor="start" >Change in the 0–100 screening score when only the name or one signal differs from a matched control. Shaded band ≈ run-to-run noise (±1.5).</text><line x1="24.0" x2="1076.0" y1="68.0" y2="68.0" stroke="#f2f2f2" stroke-width="1.3"/><rect x="559.0" y="92" width="222.0" height="360" fill="#22262c"/><line x1="300.0" x2="300.0" y1="92.0" y2="452.0" stroke="#1d2127" stroke-width="1"/><text x="300.0" y="468.0" font-family="'Segoe UI',Aptos,-apple-system,BlinkMacSystemFont,'Helvetica Neue',Arial,sans-serif" font-size="12.3" font-weight="400" fill="#7c7c7c" text-anchor="middle" >-5</text><line x1="374.0" x2="374.0" y1="92.0" y2="452.0" stroke="#1d2127" stroke-width="1"/><text x="374.0" y="468.0" font-family="'Segoe UI',Aptos,-apple-system,BlinkMacSystemFont,'Helvetica Neue',Arial,sans-serif" font-size="12.3" font-weight="400" fill="#7c7c7c" text-anchor="middle" >-4</text><line x1="448.0" x2="448.0" y1="92.0" y2="452.0" stroke="#1d2127" stroke-width="1"/><text x="448.0" y="468.0" font-family="'Segoe UI',Aptos,-apple-system,BlinkMacSystemFont,'Helvetica Neue',Arial,sans-serif" font-size="12.3" font-weight="400" fill="#7c7c7c" text-anchor="middle" >-3</text><line x1="522.0" x2="522.0" y1="92.0" y2="452.0" stroke="#1d2127" stroke-width="1"/><text x="522.0" y="468.0" font-family="'Segoe UI',Aptos,-apple-system,BlinkMacSystemFont,'Helvetica Neue',Arial,sans-serif" font-size="12.3" font-weight="400" fill="#7c7c7c" text-anchor="middle" >-2</text><line x1="596.0" x2="596.0" y1="92.0" y2="452.0" stroke="#1d2127" stroke-width="1"/><text x="596.0" y="468.0" font-family="'Segoe UI',Aptos,-apple-system,BlinkMacSystemFont,'Helvetica Neue',Arial,sans-serif" font-size="12.3" font-weight="400" fill="#7c7c7c" text-anchor="middle" >-1</text><line x1="670.0" x2="670.0" y1="92.0" y2="452.0" stroke="#1d2127" stroke-width="1"/><text x="670.0" y="468.0" font-family="'Segoe UI',Aptos,-apple-system,BlinkMacSystemFont,'Helvetica Neue',Arial,sans-serif" font-size="12.3" font-weight="400" fill="#7c7c7c" text-anchor="middle" >0</text><line x1="744.0" x2="744.0" y1="92.0" y2="452.0" stroke="#1d2127" stroke-width="1"/><text x="744.0" y="468.0" font-family="'Segoe UI',Aptos,-apple-system,BlinkMacSystemFont,'Helvetica Neue',Arial,sans-serif" font-size="12.3" font-weight="400" fill="#7c7c7c" text-anchor="middle" >+1</text><line x1="818.0" x2="818.0" y1="92.0" y2="452.0" stroke="#1d2127" stroke-width="1"/><text x="818.0" y="468.0" font-family="'Segoe UI',Aptos,-apple-system,BlinkMacSystemFont,'Helvetica Neue',Arial,sans-serif" font-size="12.3" font-weight="400" fill="#7c7c7c" text-anchor="middle" >+2</text><line x1="892.0" x2="892.0" y1="92.0" y2="452.0" stroke="#1d2127" stroke-width="1"/><text x="892.0" y="468.0" font-family="'Segoe UI',Aptos,-apple-system,BlinkMacSystemFont,'Helvetica Neue',Arial,sans-serif" font-size="12.3" font-weight="400" fill="#7c7c7c" text-anchor="middle" >+3</text><line x1="966.0" x2="966.0" y1="92.0" y2="452.0" stroke="#1d2127" stroke-width="1"/><text x="966.0" y="468.0" font-family="'Segoe UI',Aptos,-apple-system,BlinkMacSystemFont,'Helvetica Neue',Arial,sans-serif" font-size="12.3" font-weight="400" fill="#7c7c7c" text-anchor="middle" >+4</text><line x1="1040.0" x2="1040.0" y1="92.0" y2="452.0" stroke="#1d2127" stroke-width="1"/><text x="1040.0" y="468.0" font-family="'Segoe UI',Aptos,-apple-system,BlinkMacSystemFont,'Helvetica Neue',Arial,sans-serif" font-size="12.3" font-weight="400" fill="#7c7c7c" text-anchor="middle" >+5</text><line x1="670.0" x2="670.0" y1="92.0" y2="452.0" stroke="#b4b4b4" stroke-width="1"/><text x="300.0" y="486.0" font-family="'Segoe UI',Aptos,-apple-system,BlinkMacSystemFont,'Helvetica Neue',Arial,sans-serif" font-size="12.3" font-weight="400" fill="#7c7c7c" text-anchor="start" >← lower score</text><text x="1040.0" y="486.0" font-family="'Segoe UI',Aptos,-apple-system,BlinkMacSystemFont,'Helvetica Neue',Arial,sans-serif" font-size="12.3" font-weight="400" fill="#7c7c7c" text-anchor="end" >higher score →</text><text x="286.0" y="111.0" font-family="'Segoe UI',Aptos,-apple-system,BlinkMacSystemFont,'Helvetica Neue',Arial,sans-serif" font-size="14.0" font-weight="400" fill="#f2f2f2" text-anchor="end" >White man</text><circle cx="555.9" cy="101.8" r="5.5" fill="#f2f2f2" stroke="#0d1117" stroke-width="1.5"/><rect x="632.7" y="100.3" width="9.9" height="9.9" fill="#b0b0b0" stroke="#0d1117" stroke-width="1.5"/><polygon points="525.1,101.9 532.0,108.8 525.1,115.6 518.2,108.8" fill="#787878" stroke="#0d1117" stroke-width="1.5"/><polygon points="659.2,105.1 666.0,117.3 652.4,117.3" fill="#4c4c4c" stroke="#0d1117" stroke-width="1.5"/><text x="286.0" y="141.0" font-family="'Segoe UI',Aptos,-apple-system,BlinkMacSystemFont,'Helvetica Neue',Arial,sans-serif" font-size="14.0" font-weight="400" fill="#f2f2f2" text-anchor="end" >White woman</text><circle cx="629.9" cy="131.8" r="5.5" fill="#f2f2f2" stroke="#0d1117" stroke-width="1.5"/><rect x="669.7" y="130.3" width="9.9" height="9.9" fill="#b0b0b0" stroke="#0d1117" stroke-width="1.5"/><polygon points="673.1,131.9 680.0,138.8 673.1,145.6 666.2,138.8" fill="#787878" stroke="#0d1117" stroke-width="1.5"/><polygon points="535.9,135.1 542.7,147.3 529.1,147.3" fill="#4c4c4c" stroke="#0d1117" stroke-width="1.5"/><text x="286.0" y="171.0" font-family="'Segoe UI',Aptos,-apple-system,BlinkMacSystemFont,'Helvetica Neue',Arial,sans-serif" font-size="14.0" font-weight="400" fill="#f2f2f2" text-anchor="end" >Black man</text><circle cx="703.9" cy="161.8" r="5.5" fill="#f2f2f2" stroke="#0d1117" stroke-width="1.5"/><rect x="608.0" y="160.3" width="9.9" height="9.9" fill="#b0b0b0" stroke="#0d1117" stroke-width="1.5"/><polygon points="710.1,161.9 717.0,168.8 710.1,175.6 703.2,168.8" fill="#787878" stroke="#0d1117" stroke-width="1.5"/><polygon points="733.2,165.1 740.0,177.3 726.4,177.3" fill="#4c4c4c" stroke="#0d1117" stroke-width="1.5"/><text x="286.0" y="201.0" font-family="'Segoe UI',Aptos,-apple-system,BlinkMacSystemFont,'Helvetica Neue',Arial,sans-serif" font-size="14.0" font-weight="400" fill="#f2f2f2" text-anchor="end" >Black woman</text><circle cx="740.9" cy="191.8" r="5.5" fill="#f2f2f2" stroke="#0d1117" stroke-width="1.5"/><rect x="743.7" y="190.3" width="9.9" height="9.9" fill="#b0b0b0" stroke="#0d1117" stroke-width="1.5"/><polygon points="784.1,191.9 791.0,198.8 784.1,205.6 777.2,198.8" fill="#787878" stroke="#0d1117" stroke-width="1.5"/><polygon points="905.9,195.1 912.7,207.3 899.1,207.3" fill="#4c4c4c" stroke="#0d1117" stroke-width="1.5"/><text x="915.9" y="206.2" font-family="'Segoe UI',Aptos,-apple-system,BlinkMacSystemFont,'Helvetica Neue',Arial,sans-serif" font-size="11.8" font-weight="600" fill="#b4b4b4" text-anchor="start" >+3.2</text><text x="286.0" y="231.0" font-family="'Segoe UI',Aptos,-apple-system,BlinkMacSystemFont,'Helvetica Neue',Arial,sans-serif" font-size="14.0" font-weight="400" fill="#f2f2f2" text-anchor="end" >Hispanic man</text><circle cx="654.6" cy="221.8" r="5.5" fill="#f2f2f2" stroke="#0d1117" stroke-width="1.5"/><rect x="657.3" y="220.3" width="9.9" height="9.9" fill="#b0b0b0" stroke="#0d1117" stroke-width="1.5"/><polygon points="710.1,221.9 717.0,228.8 710.1,235.6 703.2,228.8" fill="#787878" stroke="#0d1117" stroke-width="1.5"/><polygon points="585.2,225.1 592.0,237.3 578.4,237.3" fill="#4c4c4c" stroke="#0d1117" stroke-width="1.5"/><text x="286.0" y="261.0" font-family="'Segoe UI',Aptos,-apple-system,BlinkMacSystemFont,'Helvetica Neue',Arial,sans-serif" font-size="14.0" font-weight="400" fill="#f2f2f2" text-anchor="end" >Hispanic woman</text><circle cx="728.6" cy="251.8" r="5.5" fill="#f2f2f2" stroke="#0d1117" stroke-width="1.5"/><rect x="694.3" y="250.3" width="9.9" height="9.9" fill="#b0b0b0" stroke="#0d1117" stroke-width="1.5"/><polygon points="710.1,251.9 717.0,258.8 710.1,265.6 703.2,258.8" fill="#787878" stroke="#0d1117" stroke-width="1.5"/><polygon points="745.5,255.1 752.3,267.3 738.7,267.3" fill="#4c4c4c" stroke="#0d1117" stroke-width="1.5"/><text x="286.0" y="291.0" font-family="'Segoe UI',Aptos,-apple-system,BlinkMacSystemFont,'Helvetica Neue',Arial,sans-serif" font-size="14.0" font-weight="400" fill="#f2f2f2" text-anchor="end" >Asian man</text><circle cx="629.9" cy="281.8" r="5.5" fill="#f2f2f2" stroke="#0d1117" stroke-width="1.5"/><rect x="620.3" y="280.3" width="9.9" height="9.9" fill="#b0b0b0" stroke="#0d1117" stroke-width="1.5"/><polygon points="500.4,281.9 507.3,288.8 500.4,295.6 493.5,288.8" fill="#787878" stroke="#0d1117" stroke-width="1.5"/><text x="490.4" y="292.8" font-family="'Segoe UI',Aptos,-apple-system,BlinkMacSystemFont,'Helvetica Neue',Arial,sans-serif" font-size="11.8" font-weight="600" fill="#b4b4b4" text-anchor="end" >-2.3</text><polygon points="437.2,285.1 444.0,297.3 430.4,297.3" fill="#4c4c4c" stroke="#0d1117" stroke-width="1.5"/><text x="427.2" y="296.2" font-family="'Segoe UI',Aptos,-apple-system,BlinkMacSystemFont,'Helvetica Neue',Arial,sans-serif" font-size="11.8" font-weight="600" fill="#b4b4b4" text-anchor="end" >-3.1</text><text x="286.0" y="321.0" font-family="'Segoe UI',Aptos,-apple-system,BlinkMacSystemFont,'Helvetica Neue',Arial,sans-serif" font-size="14.0" font-weight="400" fill="#f2f2f2" text-anchor="end" >Asian woman</text><circle cx="716.2" cy="311.8" r="5.5" fill="#f2f2f2" stroke="#0d1117" stroke-width="1.5"/><rect x="694.3" y="310.3" width="9.9" height="9.9" fill="#b0b0b0" stroke="#0d1117" stroke-width="1.5"/><polygon points="747.1,311.9 754.0,318.8 747.1,325.6 740.2,318.8" fill="#787878" stroke="#0d1117" stroke-width="1.5"/><polygon points="757.9,315.1 764.7,327.3 751.1,327.3" fill="#4c4c4c" stroke="#0d1117" stroke-width="1.5"/><line x1="24.0" x2="1076.0" y1="332.0" y2="332.0" stroke="#33373d" stroke-width="1"/><text x="286.0" y="351.0" font-family="'Segoe UI',Aptos,-apple-system,BlinkMacSystemFont,'Helvetica Neue',Arial,sans-serif" font-size="14.0" font-weight="400" fill="#f2f2f2" text-anchor="end" >Older (graduated 1987)</text><circle cx="682.3" cy="341.8" r="5.5" fill="#f2f2f2" stroke="#0d1117" stroke-width="1.5"/><rect x="683.5" y="340.3" width="9.9" height="9.9" fill="#b0b0b0" stroke="#0d1117" stroke-width="1.5"/><polygon points="497.3,341.9 504.2,348.8 497.3,355.6 490.5,348.8" fill="#787878" stroke="#0d1117" stroke-width="1.5"/><text x="487.3" y="352.8" font-family="'Segoe UI',Aptos,-apple-system,BlinkMacSystemFont,'Helvetica Neue',Arial,sans-serif" font-size="11.8" font-weight="600" fill="#b4b4b4" text-anchor="end" >-2.3</text><polygon points="374.0,345.1 380.8,357.3 367.2,357.3" fill="#4c4c4c" stroke="#0d1117" stroke-width="1.5"/><text x="364.0" y="356.2" font-family="'Segoe UI',Aptos,-apple-system,BlinkMacSystemFont,'Helvetica Neue',Arial,sans-serif" font-size="11.8" font-weight="600" fill="#b4b4b4" text-anchor="end" >-4.0</text><text x="286.0" y="381.0" font-family="'Segoe UI',Aptos,-apple-system,BlinkMacSystemFont,'Helvetica Neue',Arial,sans-serif" font-size="14.0" font-weight="400" fill="#f2f2f2" text-anchor="end" >Caregiving gap</text><circle cx="774.8" cy="371.8" r="5.5" fill="#f2f2f2" stroke="#0d1117" stroke-width="1.5"/><rect x="714.4" y="370.3" width="9.9" height="9.9" fill="#b0b0b0" stroke="#0d1117" stroke-width="1.5"/><polygon points="552.8,371.9 559.7,378.8 552.8,385.6 546.0,378.8" fill="#787878" stroke="#0d1117" stroke-width="1.5"/><polygon points="633.0,375.1 639.8,387.3 626.2,387.3" fill="#4c4c4c" stroke="#0d1117" stroke-width="1.5"/><text x="286.0" y="411.0" font-family="'Segoe UI',Aptos,-apple-system,BlinkMacSystemFont,'Helvetica Neue',Arial,sans-serif" font-size="14.0" font-weight="400" fill="#f2f2f2" text-anchor="end" >Disability affiliation</text><circle cx="768.7" cy="401.8" r="5.5" fill="#f2f2f2" stroke="#0d1117" stroke-width="1.5"/><rect x="800.7" y="400.3" width="9.9" height="9.9" fill="#b0b0b0" stroke="#0d1117" stroke-width="1.5"/><polygon points="737.8,401.9 744.7,408.8 737.8,415.6 731.0,408.8" fill="#787878" stroke="#0d1117" stroke-width="1.5"/><polygon points="805.7,405.1 812.5,417.3 798.9,417.3" fill="#4c4c4c" stroke="#0d1117" stroke-width="1.5"/><text x="286.0" y="441.0" font-family="'Segoe UI',Aptos,-apple-system,BlinkMacSystemFont,'Helvetica Neue',Arial,sans-serif" font-size="14.0" font-weight="400" fill="#f2f2f2" text-anchor="end" >LGBTQ+ affiliation</text><circle cx="725.5" cy="431.8" r="5.5" fill="#f2f2f2" stroke="#0d1117" stroke-width="1.5"/><rect x="726.7" y="430.3" width="9.9" height="9.9" fill="#b0b0b0" stroke="#0d1117" stroke-width="1.5"/><polygon points="762.5,431.9 769.4,438.8 762.5,445.6 755.6,438.8" fill="#787878" stroke="#0d1117" stroke-width="1.5"/><polygon points="830.3,435.1 837.1,447.3 823.5,447.3" fill="#4c4c4c" stroke="#0d1117" stroke-width="1.5"/><text x="840.3" y="446.2" font-family="'Segoe UI',Aptos,-apple-system,BlinkMacSystemFont,'Helvetica Neue',Arial,sans-serif" font-size="11.8" font-weight="600" fill="#b4b4b4" text-anchor="start" >+2.2</text><text x="24.0" y="111.0" font-family="'Segoe UI',Aptos,-apple-system,BlinkMacSystemFont,'Helvetica Neue',Arial,sans-serif" font-size="12.3" font-weight="600" fill="#7c7c7c" text-anchor="start" >Name</text><text x="24.0" y="351.0" font-family="'Segoe UI',Aptos,-apple-system,BlinkMacSystemFont,'Helvetica Neue',Arial,sans-serif" font-size="12.3" font-weight="600" fill="#7c7c7c" text-anchor="start" >Signal</text><circle cx="29.0" cy="524.0" r="5.5" fill="#f2f2f2"/><use href="#logo-claude" xlink:href="#logo-claude" x="39.0" y="516.0" width="14" height="14"/><text x="59.0" y="528.0" font-family="'Segoe UI',Aptos,-apple-system,BlinkMacSystemFont,'Helvetica Neue',Arial,sans-serif" font-size="13.4" font-weight="400" fill="#b4b4b4" text-anchor="start" >Claude Fable 5.1</text><rect x="194.1" y="519.0" width="9.9" height="9.9" fill="#b0b0b0"/><use href="#logo-gpt" xlink:href="#logo-gpt" x="209.0" y="516.0" width="14" height="14"/><text x="229.0" y="528.0" font-family="'Segoe UI',Aptos,-apple-system,BlinkMacSystemFont,'Helvetica Neue',Arial,sans-serif" font-size="13.4" font-weight="400" fill="#b4b4b4" text-anchor="start" >GPT-6.1 Sol</text><polygon points="369.0,517.1 375.9,524.0 369.0,530.9 362.1,524.0" fill="#787878"/><use href="#logo-gemini" xlink:href="#logo-gemini" x="379.0" y="516.0" width="14" height="14"/><text x="399.0" y="528.0" font-family="'Segoe UI',Aptos,-apple-system,BlinkMacSystemFont,'Helvetica Neue',Arial,sans-serif" font-size="13.4" font-weight="400" fill="#b4b4b4" text-anchor="start" >Gemini 3.1 Pro</text><polygon points="539.0,516.9 545.8,529.0 532.2,529.0" fill="#4c4c4c"/><use href="#logo-grok" xlink:href="#logo-grok" x="549.0" y="516.0" width="14" height="14"/><text x="569.0" y="528.0" font-family="'Segoe UI',Aptos,-apple-system,BlinkMacSystemFont,'Helvetica Neue',Arial,sans-serif" font-size="13.4" font-weight="400" fill="#b4b4b4" text-anchor="start" >Grok 4.7</text><text x="1076.0" y="528.0" font-family="'Segoe UI',Aptos,-apple-system,BlinkMacSystemFont,'Helvetica Neue',Arial,sans-serif" font-size="12.9" font-weight="400" fill="#7c7c7c" text-anchor="end" >Every applicant was advanced; no decision changed.</text></g></svg>